<svg width="120" height="135" xmlns="http://www.w3.org/2000/svg" version="1.1">
 <g>
  <title>Layer 1</title>
  <g id="svg_83">
   <defs transform="translate(0.898478 0) translate(0 2.08421) translate(-2 -1) translate(-10 -9) translate(10 5) translate(-89 -13)">
    <clipPath id="svg_1">
     <rect id="svg_6" fill="none" height="1117" width="2048" transform="scale(0.14648 0.14652) translate(-89 -13) translate(10 5) translate(-10 -9) translate(-2 -1) translate(0 2.08421) translate(0.898478 0)" y="0" x="0"/>
    </clipPath>
    <linearGradient id="svg_3" y2="0.10465" x2="0.3928" y1="0.57067" x1="0.6491">
     <stop stop-color="#09285d" offset="0"/>
     <stop stop-color="#10447d" offset="1"/>
    </linearGradient>
    <linearGradient id="svg_2" y2="-0.02871" x2="0.44147" y1="0.98986" x1="0.54308">
     <stop stop-color="#011546" offset="0"/>
     <stop stop-color="#103b6f" offset="1"/>
    </linearGradient>
   </defs>
   <g id="svg_7" text-anchor="none" font-size="none" font-weight="none" font-family="none" stroke-dashoffset="0" stroke-miterlimit="10" fill-rule="nonzero" fill="none" clip-path="url(#svg_1)">
    <path id="svg_8" fill="url(#svg_3)" d="m81.72612,20.39814c2.896,-3.06234 2.96045,-3.0452 6.74561,-4.79894l5.66016,-2.68988c6.1377,-2.88329 12.49219,-6.00189 18.66504,-8.74408l-6.9917,18.00729c1.53955,-0.22609 3.65771,-0.86361 5.20605,-1.28252c-1.77246,2.64592 -5.01855,6.22754 -7.01074,8.83273c-0.73975,0.96662 -3.94043,5.08817 -4.64209,5.78328c0.61816,1.60282 1.13672,3.24271 1.68604,4.87015c1.32422,3.9236 2.62939,7.85278 3.97705,11.76832c0.20215,0.58565 0.42041,1.21424 0.55371,1.8248c0.54492,3.65913 0.81006,7.38009 1.20117,11.06296l2.45361,23.62676l-32.73193,28.13616l-10.79883,9.22336c-1.65527,1.40838 -4.05762,3.56462 -5.72461,4.81623c-10.41372,-8.79785 -20.78232,-17.64992 -31.10493,-26.55517c-5.75361,-4.93799 -12.56895,-10.5743 -18.12891,-15.68343l2.37524,-22.70527c0.33765,-3.3255 0.69214,-6.64821 1.00225,-9.97678c0.04893,-0.52382 0.15835,-1.46978 0.30776,-1.95389c1.90005,-6.15589 4.15313,-12.22386 6.0835,-18.3736c-0.44722,-1.21321 -10.13247,-12.77904 -11.58853,-14.70099c1.7127,0.39312 3.54902,0.90683 5.25044,1.36457c-0.61084,-1.90686 -1.66948,-4.43292 -2.41289,-6.34432l-4.55552,-11.71806c9.32358,3.97313 18.69082,8.91419 27.9208,13.16015c0.55415,0.2548 2.61592,2.49427 3.16875,3.05282c4.83721,-1.15446 9.66489,-2.34789 14.48276,-3.58059c1.07622,-0.27004 6.49028,-1.72399 7.17144,-1.59989c6.78516,1.23666 15.16113,3.76653 21.7793,5.17784l0,-0.00001zm-44.60772,27.93703c-1.08296,0.6595 -1.66948,1.26699 -1.6311,2.61735c1.31572,5.33316 7.74023,0.40177 4.14243,-2.21895c0.11353,0.46946 0.19072,0.45305 0.03662,0.85409c-0.24829,0.05319 -0.49541,0.1115 -0.74136,0.1748l-0.03311,0.3118c0.31274,0.37657 0.59824,0.55225 0.32227,1.01189c-0.9252,0.13363 -2.75713,-0.75504 -2.35811,-1.99829c0.41206,-0.48133 0.91553,-0.60119 1.51406,-0.82038l-0.31611,-0.26741c-0.25649,0.10139 -0.68071,0.28645 -0.9356,0.3351l0.00001,0zm43.42852,1.49234c0.00293,-0.93438 0.16553,-1.0113 0.8833,-1.57571c-3.35303,0.32279 -2.29248,5.2514 0.09668,4.94238c-0.48047,-0.27297 -0.75146,-0.31004 -0.95215,-0.7313l0.28564,-0.25231c0.76758,0.15707 1.52637,-0.01245 2.27637,-0.20513c0.37793,-0.37437 0.28857,-0.19165 0.37207,-0.68075c-0.24756,-0.53979 -0.46582,-1.14391 -0.91992,-1.51461c-0.76465,-0.1118 -0.70752,0.18638 -1.59082,0.35356l-0.45117,-0.33613z"/>
    <path id="svg_9" fill="url(#svg_2)" d="m97.00297,38.40381c0.70752,-0.58609 1.84424,-2.11917 2.35547,-2.89779c0.61816,1.60282 1.13672,3.24271 1.68604,4.87015c1.32422,3.9236 2.62939,7.85278 3.97705,11.76832c0.20215,0.58565 0.42041,1.21424 0.55371,1.8248c0.54492,3.65913 0.81006,7.38009 1.20117,11.06296l2.45361,23.62676l-32.73193,28.13616l-10.79883,9.22336c-1.65527,1.40838 -4.05762,3.56462 -5.72461,4.81623c-10.41372,-8.79785 -20.78232,-17.64992 -31.10493,-26.55517c-5.75361,-4.93799 -12.56895,-10.5743 -18.12891,-15.68343l2.37524,-22.70527c0.33765,-3.3255 0.69214,-6.64821 1.00225,-9.97678c0.04893,-0.52382 0.15835,-1.46978 0.30776,-1.95389c1.90005,-6.15589 4.15313,-12.22386 6.0835,-18.3736c0.43594,0.52485 1.94443,2.46467 2.47925,2.56226l-0.08174,0.29393l-5.23418,16.09809c2.24209,5.68394 4.59756,11.46473 6.7667,17.16141c6.46406,2.37236 13.00503,4.59937 19.48887,6.92939l16.09014,7.39665c0.94043,-0.60177 3.01025,-1.40882 4.0752,-1.95579c3.49512,-1.79594 8.46973,-3.57957 11.79932,-5.44642c2.10352,-0.58067 6.18018,-2.14085 8.33057,-2.91845c3.56689,-1.28985 7.75488,-2.62028 11.20752,-4.02983c2.07422,-5.15088 5.02148,-11.98972 6.7998,-17.15291c-0.41748,-1.54861 -1.28174,-3.90954 -1.79736,-5.48891l-3.40137,-10.50719l-0.02931,-0.12504z"/>
    <path id="svg_10" fill="#072459" d="m59.94828,89.21374c4.32568,2.63698 9.33691,5.44203 13.50732,8.17659l0.13184,0.12279c0.17285,1.1842 0.09668,4.37475 0.09521,5.7002l-0.01465,10.77431c-1.62598,1.00325 -12.96973,8.14026 -13.7666,8.27828l-0.15674,-0.05846c-1.41943,-0.70566 -13.17744,-7.88516 -13.44873,-8.35667l0.00249,-16.39377c4.529,-2.78248 9.07925,-5.53038 13.64985,-8.24326l0.00001,-0.00001z"/>
    <path id="svg_11" fill="#1f5e9d" d="m73.45561,97.39034l0.13184,0.12279c0.17285,1.1842 0.09668,4.37475 0.09521,5.7002l-0.01465,10.77431c-1.62598,1.00325 -12.96973,8.14026 -13.7666,8.27828l-0.15674,-0.05846c0.14355,-0.36807 0.17139,-2.22979 0.19043,-2.76534c2.80371,-1.38977 8.17676,-5.07484 11.05225,-6.79883c0.24316,-0.14608 0.20801,-1.2182 0.2168,-1.58363c-0.15234,-3.6877 -0.01611,-8.38729 -0.00293,-12.12936c0.53613,-0.26843 1.90137,-1.09043 2.25439,-1.53996z"/>
    <path id="svg_12" fill="#39a2d3" d="m73.45561,97.39034l0.13184,0.12279c-0.1333,1.5026 -0.04834,3.62221 -0.06152,5.16817c-0.03223,3.71202 0.07471,7.44969 0.00732,11.16274c-1.62158,-0.88339 -2.25439,-0.84559 -2.3291,-2.78438c-0.15234,-3.6877 -0.01611,-8.38729 -0.00293,-12.12936c0.53613,-0.26843 1.90137,-1.09043 2.25439,-1.53996z"/>
    <path id="svg_13" fill="#92e9f1" d="m59.94828,89.21374c4.32568,2.63698 9.33691,5.44203 13.50732,8.17659c-0.35303,0.44953 -1.71826,1.27153 -2.25439,1.53996c-3.71191,-2.26408 -7.56592,-4.53402 -11.23242,-6.83796l-11.31841,6.88074l-2.35195,-1.51608c4.529,-2.78248 9.07925,-5.53038 13.64985,-8.24326l0,0.00001z"/>
    <path id="svg_14" fill="#287bbc" d="m48.61977,112.53632l7.40757,4.50017c1.08208,0.65701 2.92485,1.69791 3.90776,2.40562c-0.01904,0.53554 -0.04687,2.39727 -0.19043,2.76534c-1.41943,-0.70566 -13.17744,-7.88516 -13.44873,-8.35667c0.28213,-0.03062 1.94766,-1.08676 2.32383,-1.31446z"/>
    <path id="svg_15" fill="#39a2d3" d="m46.29594,113.85078l0.00249,-16.39377l2.35195,1.51608c0.02256,4.52113 0.01245,9.04225 -0.03062,13.56323c-0.37617,0.2277 -2.0417,1.28384 -2.32383,1.31446l0.00001,0z"/>
    <path id="svg_16" fill="#072459" d="m59.96733,95.05343c2.87109,1.81015 5.94873,3.5677 8.75684,5.41419c-0.00439,3.43304 -0.07324,7.13672 -0.00146,10.55218c-0.5874,0.51049 -8.47559,5.36891 -8.86084,5.39734c-1.17187,-0.70727 -8.44263,-4.90077 -8.74365,-5.59602l0.00205,-10.36375c2.9165,-1.84795 5.91592,-3.58059 8.84707,-5.40393l-0.00001,-0.00001z"/>
    <path id="svg_17" fill="#92e9f1" d="m59.96733,95.05343c2.87109,1.81015 5.94873,3.5677 8.75684,5.41419c-0.74268,0.47063 -1.54541,0.95797 -2.26758,1.45351l-6.48926,-4.02192c-2.11963,1.37087 -4.37007,2.68284 -6.51768,4.0502c-0.75996,-0.5225 -1.53691,-1.02024 -2.32939,-1.49205c2.9165,-1.84795 5.91592,-3.58059 8.84707,-5.40393z"/>
    <path id="svg_18" fill="#1f5e9d" d="m59.9395,113.67363c2.10205,-1.26713 4.50586,-2.6805 6.51855,-4.0395c0.71631,0.43591 1.57324,0.93057 2.26465,1.38567c-0.5874,0.51049 -8.47559,5.36891 -8.86084,5.39734l0.07764,-2.74351z"/>
    <path id="svg_19" fill="#287bbc" d="m53.44511,109.66768c1.83486,1.33805 4.51245,2.69559 6.49438,4.00595l-0.07764,2.7435c-1.17187,-0.70727 -8.44263,-4.90077 -8.74365,-5.59602l0.18032,0.08103c0.48032,-0.11795 1.66362,-0.92881 2.14658,-1.23446l0.00001,0z"/>
    <path id="svg_20" fill="#39a2d3" d="m51.12026,100.45736c0.79248,0.47181 1.56943,0.96955 2.32939,1.49205c0.05464,2.24489 0.08877,5.45521 -0.00454,7.71827c-0.48296,0.30565 -1.66626,1.11651 -2.14658,1.23446l-0.18032,-0.08103l0.00205,-10.36375z"/>
    <path id="svg_21" fill="#39a2d3" d="m66.45659,101.92113c0.72217,-0.49554 1.5249,-0.98288 2.26758,-1.45351c-0.00439,3.43304 -0.07324,7.13672 -0.00146,10.55218c-0.69141,-0.4551 -1.54834,-0.94976 -2.26465,-1.38567l-0.00147,-7.713z"/>
    <path id="svg_22" fill="#287bbc" d="m55.91205,103.37215c1.31748,-0.85628 2.72959,-1.69279 4.07432,-2.5161l3.8833,2.4317c0.20068,0.45159 0.11426,4.21196 0.10986,4.95161c-1.33887,0.84632 -2.68652,1.71403 -4.03564,2.54233l-3.99756,-2.51815c0.02739,-1.63051 0.01597,-3.26146 -0.03428,-4.89139z"/>
    <path id="svg_23" fill="#92e9f1" d="m55.91205,103.37215c1.31748,-0.85628 2.72959,-1.69279 4.07432,-2.5161l3.8833,2.4317c-0.92578,0.73716 -2.88281,1.87316 -3.95801,2.53354c-1.30225,-0.83284 -2.67627,-1.64443 -3.99961,-2.44914z"/>
    <path id="svg_24" fill="#39a2d3" d="m55.94633,108.26355c0.02739,-1.63051 0.01597,-3.26146 -0.03428,-4.89139c1.32334,0.80471 2.69736,1.6163 3.99961,2.44914c-0.00146,1.57439 -0.04541,3.40608 0.03223,4.9604l-3.99756,-2.51815z"/>
    <path id="svg_25" fill="#143c8a" d="m97.53032,73.86849c1.94092,-4.04991 3.67822,-9.49941 5.63379,-13.8198c0.80566,8.80093 1.88818,17.82282 2.7832,26.65085c0.03955,0.16982 0.16113,0.48499 0.00293,0.62917c-7.87061,7.18844 -16.36816,13.8346 -24.29004,20.95754l-0.35156,0.24557l-0.12158,-0.05055c-0.12305,-1.05687 -0.06738,-2.73955 -0.06445,-3.85108l0.01318,-7.53306c0.00146,-1.28721 0.06152,-3.16095 -0.06006,-4.36611c-1.44727,-0.69599 -3.59912,-2.02876 -4.99219,-2.85589l-7.80469,-4.63483c2.63965,-1.21732 5.59131,-2.72695 8.25293,-3.80126c2.38184,-0.96178 5.28809,-1.91037 7.73438,-2.77281l12.52881,-4.38369l0.64453,-0.27825l0.09082,-0.1358z"/>
    <path id="svg_26" fill="#39a2d3" d="m96.79496,74.28257c-0.21387,0.84192 -14.04346,16.09106 -15.71924,18.44847c-1.44727,-0.69599 -3.59912,-2.02876 -4.99219,-2.85589l-7.80469,-4.63483c2.63965,-1.21732 5.59131,-2.72695 8.25293,-3.80126c2.38184,-0.96178 5.28809,-1.91037 7.73438,-2.77281l12.52881,-4.38368z"/>
    <path id="svg_27" fill="#1f5e9d" d="m97.4395,74.00432c-1.07666,2.58731 -2.4375,5.37756 -3.60498,7.95695c-2.59131,5.778 -5.23682,11.53183 -7.93506,17.26075c-1.34912,2.87523 -3.01758,6.18754 -4.23926,9.06423l-0.35156,0.24557l-0.12158,-0.05055c-0.12305,-1.05687 -0.06738,-2.73955 -0.06445,-3.85108l0.01318,-7.53306c0.00146,-1.28721 0.06152,-3.16095 -0.06006,-4.36611c1.67578,-2.35742 15.50537,-17.60655 15.71924,-18.44847l0.64453,-0.27823z"/>
    <path id="svg_28" fill="#287bbc" d="m97.53032,73.86849c1.94092,-4.04991 3.67822,-9.49941 5.63379,-13.8198c0.80566,8.80093 1.88818,17.82282 2.7832,26.65085l-0.11426,0.27253c-0.45264,-0.19532 -7.64355,-11.93961 -8.30273,-13.10359l0,0.00001z"/>
    <path id="svg_29" fill="#143c8a" d="m16.75429,60.06745c1.4811,3.03318 2.70542,7.02668 4.10537,10.18265c0.51709,1.16574 0.92681,2.51962 1.54658,3.63554l0.09346,0.1011l0.67251,0.27136c4.03799,1.39183 8.06323,2.82028 12.07529,4.28522c3.75073,1.3338 7.54614,2.5435 11.12578,4.28097c1.68955,0.82009 3.40034,1.60809 5.09341,2.42423c-3.66064,2.19067 -9.0063,5.59793 -12.67207,7.49497c-0.04541,1.87609 0.0939,15.08532 -0.19512,15.60123c-0.26338,-0.1011 -0.25737,-0.08484 -0.45542,-0.28162c-1.37769,-0.99211 -23.86172,-20.20939 -24.17095,-20.776c-0.09697,-0.17788 -0.02007,-0.26374 0.03677,-0.4466c0.53877,-5.74416 1.12544,-11.48363 1.76001,-17.21797c0.33354,-3.06791 0.78237,-6.50916 0.98438,-9.55509l0,0.00001z"/>
    <path id="svg_30" fill="#39a2d3" d="m23.17221,74.2581c4.03799,1.39183 8.06323,2.82028 12.07529,4.28522c3.75073,1.3338 7.54614,2.5435 11.12578,4.28097c1.68955,0.82009 3.40034,1.60809 5.09341,2.42423c-3.66064,2.19067 -9.0063,5.59793 -12.67207,7.49497c-1.75063,-2.06276 -15.4667,-17.66926 -15.62241,-18.4854l0,0.00001z"/>
    <path id="svg_31" fill="#1f5e9d" d="m22.4997,73.98673l0.67251,0.27136c0.15571,0.81614 13.87178,16.42264 15.62241,18.4854c-0.04541,1.87609 0.0939,15.08532 -0.19512,15.60123c-0.26338,-0.1011 -0.25737,-0.08484 -0.45542,-0.28162c-3.75601,-7.85834 -7.41445,-15.76314 -10.97461,-23.71233c-1.54233,-3.43099 -3.23291,-6.90213 -4.66978,-10.36404l0.00001,0z"/>
    <path id="svg_32" fill="#287bbc" d="m16.75429,60.06745c1.4811,3.03318 2.70542,7.02668 4.10537,10.18265c0.51709,1.16574 0.92681,2.51962 1.54658,3.63554c-2.6502,4.39336 -5.37012,8.74423 -8.15874,13.05099l-0.17256,0.01993l-0.06504,-0.11605c0.53877,-5.74416 1.12544,-11.48363 1.76001,-17.21797c0.33354,-3.06791 0.78237,-6.50916 0.98438,-9.55509z"/>
    <path id="svg_33" fill="#39a2d3" d="m78.49614,94.33474c0.27832,0.70009 0.12598,14.74758 0.14209,16.63305l-2.50781,2.1706l0.00293,-17.25064c0.48486,-0.38345 1.79004,-1.182 2.36279,-1.553l0,-0.00001z"/>
    <path id="svg_34" fill="#39a2d3" d="m41.29452,110.9335c-0.00073,-1.85396 -0.11558,-16.04725 0.11265,-16.58264l2.33276,1.57454c0.09126,1.78744 0.01948,4.16507 0.02036,5.99764l0.01772,11.13226c-0.85957,-0.66478 -1.6686,-1.40194 -2.4835,-2.12181l0.00001,0.00001z"/>
    <path id="svg_35" fill="#92e9f1" d="m65.41948,86.55229c4.16016,2.60988 8.82422,5.25536 13.07666,7.78245c-0.57275,0.371 -1.87793,1.16955 -2.36279,1.553c-1.37988,-0.7439 -3.26221,-1.95477 -4.64502,-2.78614c-2.92676,-1.74832 -5.84326,-3.51451 -8.74805,-5.29873l2.6792,-1.25058z"/>
    <path id="svg_36" fill="#92e9f1" d="m41.40717,94.35085c4.11182,-2.49383 8.85425,-5.43895 13.03169,-7.77966c0.8354,0.38931 1.89858,0.8491 2.69839,1.26757l-8.88369,5.33785c-1.3377,0.8069 -3.25591,1.89059 -4.51362,2.74878l-2.33277,-1.57454z"/>
    <path id="svg_37" fill="#1f5e9d" d="m81.72612,20.39814c2.896,-3.06234 2.96045,-3.0452 6.74561,-4.79894l5.66016,-2.68988c6.1377,-2.88329 12.49219,-6.00189 18.66504,-8.74408l-6.9917,18.00729c1.53955,-0.22609 3.65771,-0.86361 5.20605,-1.28252c-1.77246,2.64592 -5.01855,6.22754 -7.01074,8.83273c-0.73975,0.96662 -3.94043,5.08817 -4.64209,5.78328c-0.51123,0.77863 -1.64795,2.3117 -2.35547,2.89779c-0.33398,-0.80837 -0.56836,-1.76253 -0.80273,-2.61368c-0.17285,-1.15417 -4.19385,-8.39916 -5.11816,-9.0065l-0.11426,-0.05495c-1.22021,0.19795 -3.32666,1.04207 -4.58643,1.43153c-3.83057,1.18537 -8.18701,3.05018 -11.98828,4.07965l-0.56689,0.54858c-1.54834,1.01453 -3.62549,2.70409 -5.12842,3.85913l-8.80371,6.75444c-2.86377,-2.23097 -5.73809,-4.44684 -8.62427,-6.64762c-1.39688,-1.0705 -3.70166,-2.93955 -5.12783,-3.84009l-0.57012,-0.55987c-2.25059,-0.76046 -15.49468,-5.67485 -16.79531,-5.69844l-0.16553,-0.05304c-0.7667,1.10523 -4.77964,8.19022 -4.95747,9.19713c-0.19189,0.76558 -0.37983,1.62026 -0.66475,2.34877c-0.53481,-0.09758 -2.04331,-2.03741 -2.47925,-2.56226c-0.44722,-1.21321 -10.13247,-12.77904 -11.58853,-14.70099c1.7127,0.39312 3.54902,0.90683 5.25044,1.36457c-0.61084,-1.90686 -1.66948,-4.43292 -2.41289,-6.34432l-4.55552,-11.71806c9.32358,3.97313 18.69082,8.91419 27.9208,13.16015c0.55415,0.2548 2.61592,2.49427 3.16875,3.05282c4.83721,-1.15446 9.66489,-2.34789 14.48276,-3.58059c1.07622,-0.27004 6.49028,-1.72399 7.17144,-1.59989c6.78516,1.23666 15.16113,3.76653 21.7793,5.17784l0,0.00002z"/>
    <path id="svg_38" fill="#58c5e1" d="m74.39311,32.23987c0.7251,-0.9502 3.83643,-4.07086 4.8208,-5.0637c2.02734,-2.04488 5.12695,-5.51924 7.24658,-7.22097c0.43506,-0.34873 5.51514,-2.64782 6.41162,-3.06571l14.36279,-6.6989c-5.16797,5.43367 -10.69922,10.74442 -15.78662,16.19875l-0.36621,0.39429l-0.11426,-0.05495c-1.22021,0.19795 -3.32666,1.04207 -4.58643,1.43153c-3.83057,1.18537 -8.18701,3.05018 -11.98828,4.07965l0.00001,0.00001z"/>
    <path id="svg_39" fill="#58c5e1" d="m12.72846,10.22663c6.83057,3.02322 14.24019,6.58784 20.92734,9.89253c0.60806,0.30052 11.02339,11.05343 11.91606,12.23529c-2.25059,-0.76046 -15.49468,-5.67485 -16.79531,-5.69844l-0.16553,-0.05304l-0.18853,-0.22447c-3.52412,-3.78074 -7.28804,-7.44251 -10.86665,-11.17695c-1.48198,-1.54655 -3.44048,-3.38718 -4.82739,-4.97491l0.00001,-0.00001z"/>
    <path id="svg_40" fill="#072459" d="m105.80522,22.17253c1.53955,-0.22609 3.65771,-0.86361 5.20605,-1.28252c-1.77246,2.64592 -5.01855,6.22754 -7.01074,8.83273c-0.73975,0.96662 -3.94043,5.08817 -4.64209,5.78328c-0.51123,0.77863 -1.64795,2.3117 -2.35547,2.89779c-0.33398,-0.80837 -0.56836,-1.76253 -0.80273,-2.61368c-0.17285,-1.15417 -4.19385,-8.39916 -5.11816,-9.0065l0.36621,-0.39429c3.13623,-0.95987 6.44678,-1.83447 9.59326,-2.80358c0.96826,-0.29803 4.02686,-1.05614 4.76367,-1.41322l0,-0.00001z"/>
    <path id="svg_41" fill="#072459" d="m8.92104,20.88562c1.7127,0.39312 3.54902,0.90683 5.25044,1.36457c4.59521,1.32765 9.68848,2.94512 14.25103,4.1283l0.18853,0.22447c-0.7667,1.10523 -4.77964,8.19022 -4.95747,9.19713c-0.19189,0.76558 -0.37983,1.62026 -0.66475,2.34877c-0.53481,-0.09758 -2.04331,-2.03741 -2.47925,-2.56226c-0.44722,-1.21321 -10.13247,-12.77904 -11.58853,-14.70099l0,0.00001z"/>
    <path id="svg_42" fill="#39a2d3" d="m59.94243,18.14182c6.271,1.71945 12.93604,3.20183 19.29199,4.86385c-2.00244,2.08986 -4.0415,4.15863 -6.03223,6.2567c-1.72119,1.8122 -3.56689,3.08022 -5.54883,4.57886l-7.64502,5.75998l-0.26221,-0.02828c-4.77437,-3.88082 -10.19736,-7.14697 -14.37949,-11.6725c-1.53252,-1.6585 -3.1459,-3.25692 -4.679,-4.9267c6.08774,-1.52795 13.33081,-3.10586 19.25479,-4.8319l0,-0.00001z"/>
    <path id="svg_43" fill="#92e9f1" d="m40.68764,22.97373c6.08774,-1.52795 13.33081,-3.10586 19.25479,-4.8319c-0.00586,1.70319 0.05566,20.93849 -0.19629,21.4311c-4.77437,-3.88082 -10.19736,-7.14697 -14.37949,-11.6725c-1.53252,-1.6585 -3.1459,-3.25692 -4.679,-4.9267l-0.00001,0z"/>
    <path id="svg_44" fill="#92e9f1" d="m74.39311,32.23987c3.80127,-1.02947 8.15771,-2.89428 11.98828,-4.07965c1.25977,-0.38946 3.36621,-1.23358 4.58643,-1.43153c-1.45459,1.71564 -6.34717,6.04629 -8.29102,7.84882c-6.94482,6.44073 -13.90869,13.2148 -20.95605,19.50637c-0.28271,0.28074 -1.57178,1.53864 -1.85303,1.57864c0.10254,-0.83255 0.05713,-3.2222 0.05713,-4.12976c0.00293,-2.71039 -0.00732,-5.42063 -0.03076,-8.13073l8.80371,-6.75444c1.50293,-1.15504 3.58008,-2.84461 5.12842,-3.85913l0.56689,-0.54859z"/>
    <path id="svg_45" fill="#287bbc" d="m59.89409,43.40202l8.80371,-6.75444c1.50293,-1.15504 3.58008,-2.84461 5.12842,-3.85913c-1.22168,2.31697 -12.04687,20.65951 -12.10547,21.29542c-0.28271,0.28074 -1.57178,1.53864 -1.85303,1.57864c0.10254,-0.83255 0.05713,-3.2222 0.05713,-4.12976c0.00293,-2.71039 -0.00732,-5.42063 -0.03076,-8.13073z"/>
    <path id="svg_46" fill="#92e9f1" d="m28.77656,26.65601c1.30063,0.02359 14.54473,4.93799 16.79531,5.69844l0.57012,0.55987c1.42617,0.90053 3.73096,2.76959 5.12783,3.84009c2.88618,2.20078 5.7605,4.41666 8.62427,6.64762c0.02344,2.7101 0.03369,5.42034 0.03076,8.13073c0,0.90757 0.04541,3.29722 -0.05713,4.12976l-1.9043,-1.73103c-3.35229,-2.83406 -7.35923,-6.77407 -10.59199,-9.81004l-18.59487,-17.46544z"/>
    <path id="svg_47" fill="#58c5e1" d="m46.14199,32.91431c1.42617,0.90053 3.73096,2.76959 5.12783,3.84009c2.88618,2.20078 5.7605,4.41666 8.62427,6.64762c0.02344,2.7101 0.03369,5.42034 0.03076,8.13073c0,0.90757 0.04541,3.29722 -0.05713,4.12976l-1.9043,-1.73103c-0.01758,-0.65804 -10.59038,-18.52642 -11.82144,-21.01717l0.00001,0z"/>
    <path id="svg_48" fill="#58c5e1" d="m76.36186,68.13356c4.82373,0.2592 7.61279,-0.51166 11.37744,-3.68228c2.07422,1.68678 5.68213,5.31001 7.69189,7.22654c-3.45264,1.40956 -7.64062,2.73999 -11.20752,4.02983c-2.15039,0.7776 -6.22705,2.33778 -8.33057,2.91845l-0.03223,-0.11883c0.3252,-0.78991 0.46289,-8.99141 0.50098,-10.37371l0.00001,0z"/>
    <path id="svg_49" fill="#58c5e1" d="m32.1394,64.40469c3.38936,2.93589 6.83159,4.16405 11.34932,3.72038c0.05493,1.57278 0.23379,9.49721 0.54609,10.37855l-0.10635,0.12806c-6.48384,-2.33002 -13.0248,-4.55703 -19.48887,-6.92939c2.52949,-2.47463 5.14731,-4.84524 7.6998,-7.2976l0.00001,0z"/>
    <path id="svg_50" fill="#92e9f1" d="m92.26567,52.5212c3.24902,0.63767 6.73828,1.43139 9.96533,2.00371c-1.77832,5.16319 -4.72559,12.00203 -6.7998,17.15291c-2.00977,-1.91653 -5.61768,-5.53976 -7.69189,-7.22654c0.2168,-0.20821 0.42627,-0.42331 0.62988,-0.64529c3.15967,-3.43099 4.08838,-6.71004 3.89648,-11.28479z"/>
    <path id="svg_51" fill="#92e9f1" d="m17.67289,54.54088c1.39175,-0.29422 8.83228,-1.8648 9.75308,-1.79491l0.1522,0.30814c-0.16978,4.02148 1.05718,7.58215 3.78809,10.55452c0.248,0.27458 0.50581,0.54009 0.77314,0.79606c-2.55249,2.45236 -5.17031,4.82297 -7.6998,7.2976c-2.16914,-5.69668 -4.52461,-11.47747 -6.7667,-17.16141l-0.00001,0z"/>
    <path id="svg_52" fill="#39a2d3" d="m53.32543,70.51853l0.05801,0.00073c0.65215,1.86129 2.34258,5.17286 3.26455,7.05012c1.03125,2.09807 2.25586,4.89344 3.34277,6.87532c0.10547,0.66404 0.07764,0.90595 0.02783,1.58363l-16.09014,-7.39665l0.10635,-0.12806c1.9749,-1.70143 3.96035,-3.3907 5.9562,-5.06766c0.89077,-0.75342 2.57974,-2.10877 3.33442,-2.91743l0.00001,0z"/>
    <path id="svg_53" fill="#287bbc" d="m66.52397,70.55545l0.0542,-0.00322c2.80225,2.44811 6.40723,5.69361 9.28271,7.95505l0.03223,0.11883c-3.32959,1.86685 -8.3042,3.65048 -11.79932,5.44642c-1.06494,0.54697 -3.13477,1.35402 -4.0752,1.95579c0.0498,-0.67767 0.07764,-0.91958 -0.02783,-1.58363c1.3667,-3.01164 2.77881,-6.00233 4.23779,-8.9706c0.58594,-1.21043 1.91016,-3.75364 2.29541,-4.91864l0.00001,0z"/>
    <path id="svg_54" fill="#58c5e1" d="m22.90707,38.44279c2.20078,2.30584 4.81567,5.32847 6.87671,7.77439c-1.09395,1.80502 -1.66436,3.39085 -2.00669,5.48012c-0.05156,0.31444 -0.11455,1.13512 -0.19893,1.35681l-0.1522,-0.30814c-0.9208,-0.06989 -8.36133,1.50069 -9.75308,1.79491l5.23419,-16.09809z"/>
    <path id="svg_55" fill="#39a2d3" d="m97.03227,38.5288l3.40137,10.50719c0.51563,1.57938 1.37988,3.94031 1.79736,5.48891c-3.22705,-0.57232 -6.71631,-1.36604 -9.96533,-2.00371c-0.35449,-2.54746 -0.78369,-4.15995 -2.15771,-6.34739c1.08984,-1.28076 5.9209,-6.88074 6.92432,-7.64501l-0.00001,0.00001z"/>
    <path id="svg_56" fill="#92e9f1" d="m43.48871,68.12507c3.10122,-0.47122 4.9916,-1.60868 7.34385,-3.56418c0.71016,1.77806 1.64487,4.26837 2.49287,5.95764c-0.75469,0.80866 -2.44365,2.164 -3.33442,2.91743c-1.99585,1.67696 -3.9813,3.36623 -5.9562,5.06766c-0.3123,-0.88134 -0.49116,-8.80576 -0.54609,-10.37855l-0.00001,0z"/>
    <path id="svg_57" fill="#92e9f1" d="m66.57817,70.55223c0.67969,-1.52546 1.83545,-4.62501 2.58105,-5.88438c2.35986,1.89748 4.14844,2.93736 7.20264,3.46572c-0.03809,1.3823 -0.17578,9.5838 -0.50098,10.37371c-2.87549,-2.26144 -6.48047,-5.50694 -9.28271,-7.95505z"/>
    <path id="svg_58" fill="#58c5e1" d="m61.23149,58.19092c1.13672,-0.7354 2.30859,-1.55857 3.43506,-2.32196c0.37793,3.65664 1.94531,6.2504 4.49268,8.79888c-0.74561,1.25937 -1.90137,4.35893 -2.58105,5.88438l-0.0542,0.00322c-1.79883,-3.88712 -3.54053,-8.36033 -5.29248,-12.36453l-0.00001,0.00001z"/>
    <path id="svg_59" fill="#58c5e1" d="m55.28129,55.88977l3.35889,2.25368c-1.56152,3.79291 -3.53804,8.67448 -5.25674,12.37581l-0.05801,-0.00073c-0.848,-1.68927 -1.78271,-4.17958 -2.49287,-5.95764c2.79932,-2.77735 3.79087,-4.79894 4.44873,-8.67111l0,-0.00001z"/>
    <path id="svg_60" fill="#1f5e9d" d="m23.65356,35.80009c0.64351,0.2088 1.31719,0.70009 1.90796,1.05087c2.81133,1.66905 5.55454,3.52682 8.37202,5.17726c-1.98032,1.4582 -2.74351,2.1517 -4.14976,4.18896c-2.06104,-2.44592 -4.67593,-5.46855 -6.87671,-7.77439l0.08174,-0.29393c0.28491,-0.72851 0.47285,-1.58319 0.66475,-2.34877z"/>
    <path id="svg_61" fill="#1f5e9d" d="m85.9434,42.06236c2.76416,-1.59872 5.44775,-3.43524 8.19141,-5.07879c0.68408,-0.41027 1.33008,-0.87592 2.06543,-1.19343c0.23438,0.85115 0.46875,1.80532 0.80273,2.61368l0.0293,0.12498c-1.00342,0.76427 -5.83447,6.36425 -6.92432,7.64501c-1.45166,-1.97909 -2.17529,-2.67859 -4.16455,-4.11145z"/>
    <path id="svg_62" fill="#39a2d3" d="m59.8267,61.74207l0.15967,-0.05289l0.03809,0.18843c1.24951,2.4739 2.25586,5.2366 3.47754,7.76691c-0.54932,1.67887 -2.70557,7.10932 -3.47021,8.64664c-0.04834,0.02359 -0.16699,0.00791 -0.23145,0.00557c-0.50098,-1.25849 -3.31641,-7.84384 -3.4043,-8.6503c1.12939,-2.31859 2.3833,-5.47998 3.43066,-7.90435l0,-0.00001z"/>
    <path id="svg_63" fill="#143c8a" d="m63.502,69.64451c-0.54932,1.67887 -2.70557,7.10932 -3.47021,8.64664c-0.11572,-1.74509 -0.23437,-6.99986 -0.04248,-8.62847c0.87012,0.04469 2.72461,0.17055 3.5127,-0.01817l-0.00001,0z"/>
    <path id="svg_64" fill="#92e9f1" d="m59.8267,61.74207c0.22705,1.65205 0.08057,6.13347 0.08496,7.94216c-0.8042,-0.00205 -2.80664,0.04469 -3.51562,-0.0378c1.12939,-2.31859 2.3833,-5.47998 3.43066,-7.90435l0,-0.00001z"/>
    <path id="svg_65" fill="#1f5e9d" d="m60.02446,61.8776c1.24951,2.4739 2.25586,5.2366 3.47754,7.76691c-0.78809,0.18872 -2.64258,0.06286 -3.5127,0.01817c0.19043,-1.16091 0.06006,-6.42051 0.03516,-7.78508z"/>
    <path id="svg_66" fill="#58c5e1" d="m74.85453,59.91887c2.77734,1.41879 5.14453,1.15065 7.61279,-0.66082c0.61816,0.62302 2.66162,2.69852 3.1377,3.36843c-2.41846,2.01543 -5.146,3.03406 -8.32031,2.74321c-1.47217,-0.13143 -2.90039,-0.57891 -4.18506,-1.31226c0.43506,-0.81321 1.34766,-3.18938 1.75488,-4.13855l0,-0.00001z"/>
    <path id="svg_67" fill="#58c5e1" d="m37.48871,59.33615c2.62852,1.79008 4.72837,1.92151 7.59873,0.53613c0.53862,1.433 1.09893,2.85779 1.68105,4.27365c-4.36846,2.16679 -8.68066,1.51872 -12.41074,-1.51388c1.04927,-1.182 2.02207,-2.18027 3.13096,-3.2959z"/>
    <path id="svg_68" fill="#58c5e1" d="m86.0518,45.61262c2.64404,2.6824 3.49805,5.22678 3.46143,8.93734c0,0.12176 -0.00293,0.24352 -0.00732,0.36528c-1.29932,-0.12249 -3.23877,-0.55972 -4.56592,-0.81951c-0.06445,-1.01746 -0.13477,-2.05763 -0.52881,-3.00476c-0.10254,-1.32193 -0.375,-2.15448 -1.66992,-2.68094c1.08105,-0.81936 2.27051,-1.89821 3.31055,-2.79743l-0.00001,0.00002z"/>
    <path id="svg_69" fill="#58c5e1" d="m33.7957,45.66464c0.83511,0.70243 2.46621,2.1284 3.32271,2.67054c-1.08296,0.6595 -1.66948,1.26699 -1.6311,2.61735c-0.26675,1.18611 -0.45381,1.95858 -0.54155,3.16491c-1.19004,0.23004 -3.3936,0.72221 -4.5252,0.82141c-0.03604,-3.96317 0.55796,-6.31999 3.37515,-9.2742l-0.00001,-0.00001z"/>
    <path id="svg_70" fill="#92e9f1" d="m30.42055,54.93884c1.13159,-0.0992 3.33516,-0.59137 4.5252,-0.82141c0.32959,2.33866 0.77256,3.52682 2.54297,5.21872c-1.10889,1.11563 -2.08169,2.11389 -3.13096,3.2959c-2.33452,-2.1599 -3.57114,-4.55527 -3.93721,-7.69321z"/>
    <path id="svg_71" fill="#92e9f1" d="m84.93998,54.09574c1.32715,0.25979 3.2666,0.69701 4.56592,0.81951c-0.55811,3.41619 -1.46191,5.24788 -3.90088,7.71123c-0.47607,-0.66991 -2.51953,-2.74541 -3.1377,-3.36843c1.76953,-1.71638 2.16211,-2.78834 2.47266,-5.16231z"/>
    <path id="svg_72" fill="#39a2d3" d="m48.13212,55.90252c1.13687,0.58463 2.77427,1.40912 3.82324,2.11287c-1.22798,2.8723 -2.48437,4.45314 -5.18687,6.13054c-0.58213,-1.41586 -1.14243,-2.84065 -1.68105,-4.27365c1.70786,-1.12691 2.33306,-2.14291 3.04468,-3.96976z"/>
    <path id="svg_73" fill="#39a2d3" d="m71.79301,55.87615c0.60791,1.87447 1.45313,2.87962 3.06152,4.04273c-0.40723,0.94918 -1.31982,3.32535 -1.75488,4.13855c-2.62793,-1.50362 -3.92725,-3.28784 -5.13135,-5.98665c0.3999,-0.34008 3.25049,-1.87975 3.82471,-2.19463z"/>
    <path id="svg_74" fill="#1f5e9d" d="m67.24467,54.08607c1.60254,-1.04164 3.19775,-2.09294 4.78564,-3.15362c-0.41602,1.66114 -0.6709,3.24491 -0.2373,4.9437c-0.57422,0.31488 -3.4248,1.85455 -3.82471,2.19463c-0.47021,-1.45703 -0.57129,-2.47713 -0.72363,-3.9847l0,-0.00001z"/>
    <path id="svg_75" fill="#1f5e9d" d="m47.87475,50.98637c1.50483,0.98757 3.29077,2.10085 4.73833,3.12959c-0.04541,1.52575 -0.18633,2.4298 -0.65771,3.89943c-1.04897,-0.70375 -2.68638,-1.52824 -3.82324,-2.11287c0.35435,-1.95374 0.23218,-2.99787 -0.25737,-4.91615l-0.00001,0z"/>
    <path id="svg_76" fill="#287bbc" d="m36.48266,43.68393c1.7625,1.04676 3.50991,2.11888 5.2415,3.21604c-1.46895,0.1414 -2.26465,0.37583 -3.60352,0.98933l-0.06665,0.11077c-0.25649,0.10139 -0.68071,0.28645 -0.9356,0.3351c-0.85649,-0.54214 -2.4876,-1.9681 -3.32271,-2.67054c0.9041,-0.79592 1.59521,-1.41879 2.68696,-1.9807l0.00002,0z"/>
    <path id="svg_77" fill="#1f5e9d" d="m78.24711,46.90496c1.68457,-1.11416 3.39551,-2.18906 5.12988,-3.22395c1.10156,0.59708 1.76221,1.10816 2.6748,1.93162c-1.04004,0.89921 -2.22949,1.97807 -3.31055,2.79743c-0.14941,-0.01348 -0.31494,-0.08264 -0.46289,-0.13202c-1.12061,-0.98449 -2.60303,-1.20164 -4.03125,-1.37307l0.00001,-0.00001z"/>
    <path id="svg_78" fill="#fffeff" fill-opacity="0.03529" d="m38.054,48.00007l0.31611,0.26741c-0.59854,0.2192 -1.102,0.33906 -1.51406,0.82038c-0.39902,1.24325 1.43291,2.13192 2.35811,1.99829c0.27598,-0.45964 -0.00952,-0.63533 -0.32227,-1.01189l0.03311,-0.3118c0.24595,-0.0633 0.49307,-0.12161 0.74136,-0.1748c0.1541,-0.40103 0.0769,-0.38462 -0.03662,-0.85409c3.5978,2.62072 -2.82671,7.55211 -4.14243,2.21895c-0.03838,-1.35036 0.54814,-1.95785 1.6311,-2.61735c0.25488,-0.04865 0.6791,-0.2337 0.9356,-0.3351l-0.00001,0z"/>
    <path id="svg_79" fill="#fffeff" d="m82.27836,48.27803c0.14795,0.04938 0.31348,0.11854 0.46289,0.13202c1.29492,0.52646 1.56738,1.359 1.66992,2.68094c-0.52002,1.47974 -1.21436,2.17265 -2.88428,2.1032c-0.48047,-0.27297 -0.75146,-0.31004 -0.95215,-0.7313l0.28564,-0.25231c0.76758,0.15707 1.52637,-0.01245 2.27637,-0.20513c0.37793,-0.37437 0.28857,-0.19165 0.37207,-0.68075c-0.24756,-0.53979 -0.46582,-1.14391 -0.91992,-1.51461c-0.76465,-0.1118 -0.70752,0.18638 -1.59082,0.35356l-0.45117,-0.33612c0.00293,-0.93438 0.16553,-1.0113 0.8833,-1.57571l0.84815,0.02621z"/>
    <path id="svg_80" fill="#fffeff" d="m38.37011,48.26748l1.25962,0.46609c0.11353,0.46946 0.19072,0.45305 0.03662,0.85409c-0.24829,0.05319 -0.49541,0.1115 -0.74136,0.1748l-0.03311,0.3118c0.31274,0.37657 0.59824,0.55225 0.32227,1.01189c-0.9252,0.13363 -2.75713,-0.75504 -2.35811,-1.99829c0.41206,-0.48133 0.91553,-0.60119 1.51406,-0.82038l0.00001,0z"/>
    <path id="svg_81" fill="#fffeff" fill-opacity="0.87059" d="m80.54692,49.82751l0.45117,0.33612c0.8833,-0.16718 0.82617,-0.46536 1.59082,-0.35356c0.4541,0.3707 0.67236,0.97482 0.91992,1.51461c-0.0835,0.4891 0.00586,0.30638 -0.37207,0.68075c-0.75,0.19268 -1.50879,0.36221 -2.27637,0.20513c0.29004,-0.72221 -0.0835,-1.64854 -0.31348,-2.38306l0.00001,0.00001z"/>
   </g>
  </g>
 </g>
</svg>